<?xml version="1.0" encoding="utf-8"?>
<!-- Generator: Adobe Illustrator 27.7.0, SVG Export Plug-In . SVG Version: 6.00 Build 0)  -->
<svg version="1.1" id="Layer_1" xmlns="http://www.w3.org/2000/svg" xmlns:xlink="http://www.w3.org/1999/xlink" x="0px" y="0px"
	 viewBox="0 0 594.5 637.8" style="enable-background:new 0 0 594.5 637.8;" xml:space="preserve">
<style type="text/css">
	.st0{fill:#FFFFFF;}
	.st1{fill:#5CC6CD;}
</style>
<g>
	<polygon class="st0" points="171.4,246.2 3.6,343.1 3.6,440 255.3,294.6 	"/>
	<polygon class="st0" points="423.1,391.5 339.2,343.1 87.5,488.4 129.4,512.6 339.2,633.7 423.1,585.3 255.3,488.4 	"/>
	<polygon class="st0" points="423.1,4.1 255.3,100.9 87.6,4.1 3.6,52.4 255.3,197.8 339.2,149.4 423.1,100.9 507,149.4 339.2,246.2 
		423.1,294.6 590.9,197.8 590.9,100.9 	"/>
	<g>
		<polygon class="st1" points="255.3,294.6 255.3,197.8 171.4,149.3 3.6,52.4 3.6,149.3 		"/>
	</g>
	<g>
		<polygon class="st1" points="423.1,391.5 423.1,294.6 339.2,246.2 339.2,343.1 		"/>
	</g>
</g>
<g>
</g>
<g>
</g>
<g>
</g>
<g>
</g>
<g>
</g>
<g>
</g>
</svg>
